HIERARCHY
ROOT Hips
{
	OFFSET	0.000000	0.000000	0.000000
	CHANNELS 6 Xposition Yposition Zposition Zrotation Xrotation Yrotation
	JOINT LeftUpLeg
	{
		OFFSET	12.811937	-7.635976	0.557276
		CHANNELS 3 Zrotation Xrotation Yrotation
		JOINT LeftLeg
		{
			OFFSET	-0.429270	-42.206159	-1.204951
			CHANNELS 3 Zrotation Xrotation Yrotation
			JOINT LeftFoot
			{
				OFFSET	-2.112259	-42.464481	-3.973220
				CHANNELS 3 Zrotation Xrotation Yrotation
				JOINT LeftFootHeel
				{
					OFFSET	0.387196	-5.329707	-3.419729
					CHANNELS 3 Zrotation Xrotation Yrotation
					End Site
					{
						OFFSET	0.327567	-0.000003	16.505428
					}
				}
			}
		}
	}
	JOINT RightUpLeg
	{
		OFFSET	-12.811937	-7.635976	0.557276
		CHANNELS 3 Zrotation Xrotation Yrotation
		JOINT RightLeg
		{
			OFFSET	0.429270	-42.206159	-1.204951
			CHANNELS 3 Zrotation Xrotation Yrotation
			JOINT RightFoot
			{
				OFFSET	2.112259	-42.464481	-3.973220
				CHANNELS 3 Zrotation Xrotation Yrotation
				JOINT RightFootHeel
				{
					OFFSET	-0.387198	-5.329707	-3.419729
					CHANNELS 3 Zrotation Xrotation Yrotation
					End Site
					{
						OFFSET	-0.327566	-0.000003	16.505428
					}
				}
			}
		}
	}
	JOINT Spine
	{
		OFFSET	0.000000	13.731315	-1.007646
		CHANNELS 3 Zrotation Xrotation Yrotation
		JOINT Spine1
		{
			OFFSET	0.000000	12.091746	-0.604589
			CHANNELS 3 Zrotation Xrotation Yrotation
			JOINT LeftShoulder
			{
				OFFSET	5.746115	20.990027	-0.833816
				CHANNELS 3 Zrotation Xrotation Yrotation
				JOINT LeftArm
				{
					OFFSET	10.881538	-1.359258	0.219250
					CHANNELS 3 Zrotation Xrotation Yrotation
					JOINT LeftForeArm
					{
						OFFSET	4.390314	-31.537147	0.202818
						CHANNELS 3 Zrotation Xrotation Yrotation
						JOINT LeftHand
						{
							OFFSET	3.168650	-24.865023	5.373370
							CHANNELS 3 Zrotation Xrotation Yrotation
							End Site
							{
								OFFSET	1.457528	-10.806075	2.170267
							}
						}
					}
				}
			}
			JOINT RightShoulder
			{
				OFFSET	-5.746115	20.990027	-0.833816
				CHANNELS 3 Zrotation Xrotation Yrotation
				JOINT RightArm
				{
					OFFSET	-10.881538	-1.359258	0.219250
					CHANNELS 3 Zrotation Xrotation Yrotation
					JOINT RightForeArm
					{
						OFFSET	-4.390314	-31.537147	0.202818
						CHANNELS 3 Zrotation Xrotation Yrotation
						JOINT RightHand
						{
							OFFSET	-3.168650	-24.865023	5.373370
							CHANNELS 3 Zrotation Xrotation Yrotation
							End Site
							{
								OFFSET	-1.457528	-10.806075	2.170267
							}
						}
					}
				}
			}
			JOINT Neck
			{
				OFFSET	0.000000	27.075639	0.680489
				CHANNELS 3 Zrotation Xrotation Yrotation
				JOINT Head
				{
					OFFSET	0.000000	12.391287	1.239129
					CHANNELS 3 Zrotation Xrotation Yrotation
					End Site
					{
						OFFSET	0.000000	13.818691	-0.105853
					}
				}
			}
		}
	}
}
MOTION
Frames:    6
Frame Time: 0.016667
0.000000	100.441833	0.000000	-0.151008	-1.832536	4.527877	-0.367284	0.852745	-7.753622	-0.029174	1.305273	2.350691	-1.677558	0.610111	-6.055710	0.	0.	0.	0.405492	0.895536	-0.560222	1.578915	-0.684282	-3.675979	-1.287599	2.023103	-1.848992	0.	0.	0.	0.000000	0.000000	-0.000001	0.301034	3.107858	-2.368133	-2.529492	1.016780	-3.975610	3.492767	-2.178477	-4.462891	-4.786865	-3.923439	-6.287766	6.787754	2.240662	-19.427845	-0.908127	1.843041	-6.295882	0.044216	-5.481855	11.167774	2.941201	-6.217305	4.354313	-0.601857	4.577871	-3.431528	0.017200	0.603869	-8.948051	-1.135378	4.589429	2.313383	
-0.001193	100.438471	0.000587	-0.151008	-1.832536	4.527877	-0.367701	0.852155	-7.759239	-0.033078	1.306828	2.314368	-1.669562	0.592157	-6.009118	0.	0.	0.	0.401286	0.899332	-0.591093	1.576474	-0.687321	-3.683963	-1.281940	2.022820	-1.810036	0.	0.	0.	0.000000	0.000000	-0.000001	0.301034	3.107858	-2.368133	-2.529492	1.016780	-3.975610	3.478729	-2.184683	-4.463881	-4.801985	-3.931824	-6.301362	6.810755	2.258183	-19.404053	-0.908127	1.843041	-6.295882	0.044216	-5.481855	11.167774	2.939949	-6.215140	4.369505	-0.599552	4.575777	-3.446923	-0.014440	0.620619	-8.945202	-1.101301	4.577854	2.310639	
-0.001383	100.436494	-0.000774	-0.151008	-1.832536	4.527877	-0.369383	0.849817	-7.781582	-0.034200	1.309800	2.316786	-1.665196	0.581665	-5.986376	0.	0.	0.	0.399149	0.901268	-0.606837	1.575390	-0.688872	-3.687103	-1.279192	2.022688	-1.791097	0.	0.	0.	0.000000	0.000000	-0.000001	0.301034	3.107858	-2.368133	-2.529492	1.016780	-3.975610	3.468929	-2.186743	-4.464615	-4.807805	-3.937443	-6.308650	6.810681	2.261063	-19.342272	-0.908127	1.843041	-6.295882	0.044216	-5.481855	11.167774	2.939949	-6.215140	4.369505	-0.599552	4.575777	-3.446923	-0.040409	0.634375	-8.942858	-1.073330	4.568344	2.308390	
-0.000738	100.436416	-0.001380	-0.151008	-1.832536	4.527877	-0.371042	0.847511	-7.803576	-0.035210	1.312703	2.320152	-1.663568	0.580641	-5.967699	0.	0.	0.	0.397038	0.903178	-0.622352	1.574200	-0.690390	-3.690919	-1.276378	2.022542	-1.771713	0.	0.	0.	0.000000	0.000000	-0.000001	0.301034	3.107858	-2.368133	-2.529492	1.016780	-3.975610	3.468929	-2.186743	-4.464615	-4.823182	-3.945796	-6.316499	6.811604	2.264746	-19.284840	-0.908127	1.843041	-6.295882	0.044216	-5.481855	11.167774	2.939949	-6.215140	4.369505	-0.599552	4.575777	-3.446923	-0.045706	0.637185	-8.942379	-1.067625	4.566399	2.307931	
-0.000086	100.436300	-0.002032	-0.151008	-1.832536	4.527877	-0.372720	0.845190	-7.825722	-0.036137	1.315615	2.324381	-1.662002	0.579651	-5.949728	0.	0.	0.	0.394914	0.905115	-0.638055	1.573197	-0.691938	-3.693562	-1.273699	2.022415	-1.753317	0.	0.	0.	0.000000	0.000000	-0.000001	0.301034	3.107858	-2.368133	-2.529492	1.016780	-3.975610	3.468929	-2.186743	-4.464615	-4.837811	-3.953745	-6.323984	6.811022	2.266593	-19.224117	-0.910094	1.846492	-6.300808	0.040845	-5.485718	11.170678	2.943084	-6.217041	4.370622	-0.596280	4.576957	-3.446819	-0.056784	0.643055	-8.941375	-1.055694	4.562339	2.306974	
0.000580	100.436203	-0.002726	-0.151008	-1.832536	4.527877	-0.374427	0.842839	-7.848145	-0.037014	1.318552	2.329267	-1.660466	0.578680	-5.932137	0.	0.	0.	0.392749	0.907080	-0.654000	1.572520	-0.693488	-3.694419	-1.271246	2.022285	-1.736456	0.	0.	0.	0.000000	0.000000	-0.000001	0.301034	3.107858	-2.368133	-2.529492	1.016780	-3.975610	3.468929	-2.186743	-4.464615	-4.851194	-3.961006	-6.330820	6.807285	2.266346	-19.155785	-0.914382	1.854023	-6.311546	0.033202	-5.494175	11.176916	2.957186	-6.218099	4.374077	-0.596280	4.576957	-3.446819	-0.082110	0.656470	-8.939078	-1.028419	4.553061	2.304788	
